<svg width="22" height="22" viewBox="0 0 22 22" fill="none" xmlns="http://www.w3.org/2000/svg">
<g clip-path="url(#clip0_354_242)">
<path d="M11.0013 21.8307C5.89441 21.8307 3.34098 21.8307 1.75448 20.2442C0.167969 18.6578 0.167969 16.1042 0.167969 10.9974C0.167969 5.89051 0.167969 3.33707 1.75448 1.75057C3.34098 0.164062 5.89441 0.164062 11.0013 0.164062C16.1081 0.164062 18.6617 0.164062 20.2481 1.75057C21.8346 3.33707 21.8346 5.89051 21.8346 10.9974C21.8346 16.1042 21.8346 18.6578 20.2481 20.2442C18.6617 21.8307 16.1081 21.8307 11.0013 21.8307Z" fill="#242424"/>
<path d="M7.71844 7.71454C8.03574 7.39724 8.55019 7.39724 8.86746 7.71454L11.0013 9.84841L13.1351 7.71456C13.4524 7.39726 13.9668 7.39726 14.2841 7.71456C14.6014 8.03185 14.6014 8.54631 14.2841 8.86355L12.1504 10.9974L14.2841 13.1312C14.6014 13.4484 14.6014 13.9629 14.2841 14.2802C13.9668 14.5975 13.4523 14.5975 13.135 14.2802L11.0013 12.1465L8.86757 14.2802C8.55021 14.5975 8.03576 14.5975 7.71846 14.2802C7.40117 13.9629 7.40117 13.4485 7.71846 13.1312L9.85232 10.9974L7.71844 8.86355C7.40114 8.54629 7.40114 8.03183 7.71844 7.71454Z" fill="white"/>
</g>
<defs>
<clipPath id="clip0_354_242">
<rect width="22" height="22" rx="4" fill="white"/>
</clipPath>
</defs>
</svg>
