<svg width="17" height="19" viewBox="0 0 17 19" fill="none" xmlns="http://www.w3.org/2000/svg">
<g clip-path="url(#clip0_318_633)">
<path d="M8.50067 6.22037C9.92167 6.22037 11.0736 5.04569 11.0736 3.5967C11.0736 2.14772 9.92167 0.973694 8.50067 0.973694C7.0797 0.973694 5.92773 2.14837 5.92773 3.5967C5.92773 5.04569 7.0797 6.22037 8.50067 6.22037Z" fill="white"/>
<path d="M15.7072 13.8353C15.2058 13.1502 14.9304 12.3213 14.9304 11.4669C14.9304 10.6125 15.2058 9.783 15.7072 9.09858C16.056 8.62213 16.2497 8.02165 16.2124 7.37328C16.1384 6.08968 15.0057 4.95962 13.7457 4.9104C12.279 4.8533 11.0717 6.04899 11.0717 7.5321C11.0717 8.1214 11.2622 8.66544 11.5846 9.10314C12.0737 9.76854 12.3581 10.5679 12.3581 11.3994V11.5207C12.3581 12.0392 11.7783 12.3352 11.3716 12.024L11.3259 11.9893C11.1656 11.8666 11.0717 11.6744 11.0717 11.4702V11.4669C11.0717 10.0179 9.91976 8.84326 8.49881 8.84326C8.4679 8.84326 8.43763 8.84391 8.40678 8.84457C7.71944 8.8695 7.0495 8.62669 6.55268 8.14243C6.20452 7.80247 5.96641 7.36606 5.84863 6.88963C5.55968 5.71955 4.50039 4.86118 3.25254 4.9104C1.99183 4.95962 0.859822 6.08901 0.785814 7.37328C0.748487 8.02165 0.942197 8.62213 1.291 9.09858C1.79233 9.78365 2.06777 10.6125 2.06777 11.4669C2.06777 12.3213 1.79233 13.1502 1.291 13.8353C0.942197 14.3118 0.748487 14.9122 0.785814 15.5606C0.859822 16.8448 1.99248 17.9743 3.25254 18.0234C4.7192 18.0806 5.9265 16.8849 5.9265 15.4018C5.9265 14.8124 5.73537 14.2685 5.41359 13.8308C4.92385 13.1653 4.64005 12.366 4.64005 11.5345V11.4925C4.64005 10.9938 5.16197 10.6551 5.5925 10.8928C5.801 11.0075 5.92715 11.2281 5.9265 11.4643V11.4676C5.9265 12.9166 7.07846 14.0906 8.49881 14.0906C8.52966 14.0906 8.55993 14.09 8.59084 14.0893C9.27812 14.0644 9.948 14.3072 10.4449 14.7922C10.7931 15.1314 11.0312 15.5684 11.1489 16.0449C11.4379 17.2151 12.4972 18.0734 13.745 18.0241C15.0057 17.9749 16.1377 16.8455 16.2117 15.5612C16.2491 14.9122 16.0553 14.3118 15.7072 13.8353Z" fill="white"/>
</g>
<defs>
<clipPath id="clip0_318_633">
<rect width="17" height="18" fill="white" transform="translate(0 0.5)"/>
</clipPath>
</defs>
</svg>
